# xmcd CD database file
# Copyright (C) 1993-1998 Ti Kan
#
# Track frame offsets:
#  180
#  28748
#  43128
#  62268
#  79886
#  92749
#  104795
#  122307
#  137521
#  160805
#  178105
#  204193
#  231070
#
# Disc length: 3400 seconds
#
# Revision: 1
# Processed by: cddbd v1.4b41PL1 Copyright (c) Steve Scherf et al.
# Submitted via: KiC 2.1 - (C) 1996-1998 Alwin Hoogerdijk
#
DISCID=a40d460d
DTITLE=David Goldflies - One Tan Arm
DYEAR=1900
DGENRE=
TTITLE0=Fingerpaint
TTITLE1=Special Kind Of Love Affair
TTITLE2=Bb Blues
TTITLE3=Take The High Road
TTITLE4=High Frontier
TTITLE5=Windsong
TTITLE6=Skywalk
TTITLE7=New Blues
TTITLE8=On The Calm Seas
TTITLE9=Zen Highway
TTITLE10=Obsession
TTITLE11=Blues Jam
TTITLE12=Lady Paducah
EXTD=www.interoz.com/goldflies/
EXTT0=
EXTT1=
EXTT2=
EXTT3=
EXTT4=
EXTT5=
EXTT6=
EXTT7=
EXTT8=
EXTT9=
EXTT10=
EXTT11=
EXTT12=
PLAYORDER=
